<svg width="24" height="24" viewBox="0 0 24 24" fill="none" xmlns="http://www.w3.org/2000/svg">
<path d="M19.006 3.70481C19.3953 3.56325 19.5961 3.13293 19.4546 2.74365C19.313 2.35438 18.8827 2.15356 18.4934 2.29511L5.99988 6.83822V2.99996C5.99988 2.58575 5.66409 2.24996 5.24988 2.24996H3.74988C3.33566 2.24996 2.99988 2.58575 2.99988 2.99996V7.92913L1.99341 8.29511C1.60413 8.43667 1.40332 8.86699 1.54487 9.25627C1.68643 9.64554 2.11675 9.84636 2.50602 9.7048L19.006 3.70481Z" fill="#1F1F1F"/>
<path fill-rule="evenodd" clip-rule="evenodd" d="M3.01883 11.1145L17.9999 5.66684V9.08833L22.006 10.5451C22.3953 10.6867 22.5961 11.117 22.4546 11.5063C22.313 11.8955 21.8827 12.0964 21.4934 11.9548L20.9997 11.7753V20.25H21.7499C22.1641 20.25 22.4999 20.5857 22.4999 21C22.4999 21.4142 22.1641 21.75 21.7499 21.75H2.24988C1.83566 21.75 1.49988 21.4142 1.49988 21C1.49988 20.5857 1.83566 20.25 2.24988 20.25H2.99988V11.1213L3.01883 11.1145ZM17.9999 20.25V10.6844L19.4997 11.2298V20.25H17.9999ZM8.99988 14.25C8.58566 14.25 8.24988 14.5857 8.24988 15V19.5C8.24988 19.9142 8.58566 20.25 8.99988 20.25H11.9999C12.4141 20.25 12.7499 19.9142 12.7499 19.5V15C12.7499 14.5857 12.4141 14.25 11.9999 14.25H8.99988Z" fill="#1F1F1F"/>
</svg>
