<svg width="50" height="50" viewBox="0 0 50 50" fill="none" xmlns="http://www.w3.org/2000/svg">
<path d="M19.817 25.4514C19.817 22.4229 22.2375 19.9672 25.2242 19.9672C28.2109 19.9672 30.6327 22.4229 30.6327 25.4514C30.6327 28.48 28.2109 30.9357 25.2242 30.9357C22.2375 30.9357 19.817 28.48 19.817 25.4514ZM16.8933 25.4514C16.8933 30.1171 20.623 33.8991 25.2242 33.8991C29.8254 33.8991 33.5551 30.1171 33.5551 25.4514C33.5551 20.7858 29.8254 17.0038 25.2242 17.0038C20.623 17.0038 16.8933 20.7858 16.8933 25.4514ZM31.938 16.6689C31.9379 17.0593 32.0519 17.4411 32.2657 17.7658C32.4795 18.0905 32.7835 18.3437 33.1392 18.4933C33.4949 18.6428 33.8863 18.6821 34.264 18.6061C34.6417 18.53 34.9887 18.3422 35.2611 18.0662C35.5334 17.7902 35.719 17.4385 35.7943 17.0556C35.8695 16.6727 35.8311 16.2757 35.6839 15.9149C35.5367 15.5541 35.2873 15.2457 34.9672 15.0286C34.6471 14.8116 34.2708 14.6956 33.8857 14.6955H33.8849C33.3688 14.6957 32.8738 14.9037 32.5088 15.2737C32.1438 15.6437 31.9385 16.1455 31.938 16.6689V16.6689ZM18.6696 38.8425C17.0878 38.7695 16.2281 38.5023 15.6567 38.2766C14.8992 37.9776 14.3588 37.6214 13.7906 37.046C13.2223 36.4706 12.8706 35.9231 12.577 35.155C12.3543 34.5759 12.0908 33.7039 12.0189 32.0999C11.9402 30.3658 11.9245 29.8449 11.9245 25.4516C11.9245 21.0583 11.9415 20.5388 12.0189 18.8032C12.0909 17.1993 12.3563 16.3289 12.577 15.7481C12.8719 14.98 13.2231 14.432 13.7906 13.8558C14.358 13.2796 14.898 12.9229 15.6567 12.6252C16.2278 12.3994 17.0878 12.1322 18.6696 12.0593C20.3798 11.9796 20.8935 11.9636 25.2242 11.9636C29.5549 11.9636 30.0691 11.9809 31.7807 12.0593C33.3625 12.1324 34.2208 12.4015 34.7936 12.6252C35.5511 12.9229 36.0916 13.2804 36.6598 13.8558C37.228 14.4312 37.5785 14.98 37.8734 15.7481C38.0961 16.3272 38.3596 17.1993 38.4315 18.8032C38.5101 20.5388 38.5258 21.0583 38.5258 25.4516C38.5258 29.8449 38.5101 30.3644 38.4315 32.0999C38.3594 33.7039 38.0947 34.5757 37.8734 35.155C37.5785 35.9231 37.2272 36.4712 36.6598 37.046C36.0923 37.6209 35.5511 37.9776 34.7936 38.2766C34.2225 38.5024 33.3625 38.7696 31.7807 38.8425C30.0706 38.9223 29.5568 38.9382 25.2242 38.9382C20.8916 38.9382 20.3793 38.9223 18.6696 38.8425V38.8425ZM18.5353 9.09963C16.8081 9.17939 15.6279 9.45709 14.5972 9.86377C13.5298 10.2837 12.6262 10.8472 11.7232 11.7613C10.8202 12.6755 10.266 13.5932 9.85184 14.6756C9.45077 15.7214 9.17691 16.9175 9.09825 18.6688C9.0183 20.423 9 20.9838 9 25.4514C9 29.9191 9.0183 30.4799 9.09825 32.2341C9.17691 33.9855 9.45077 35.1815 9.85184 36.2273C10.266 37.309 10.8204 38.2278 11.7232 39.1416C12.626 40.0553 13.5298 40.618 14.5972 41.0391C15.6299 41.4458 16.8081 41.7235 18.5353 41.8033C20.2661 41.883 20.8182 41.9029 25.2242 41.9029C29.6302 41.9029 30.1832 41.8843 31.9131 41.8033C33.6404 41.7235 34.8198 41.4458 35.8512 41.0391C36.918 40.618 37.8222 40.0557 38.7252 39.1416C39.6282 38.2274 40.1812 37.309 40.5966 36.2273C40.9976 35.1815 41.2728 33.9854 41.3501 32.2341C41.4288 30.4786 41.4471 29.9191 41.4471 25.4514C41.4471 20.9838 41.4288 20.423 41.3501 18.6688C41.2715 16.9174 40.9976 15.7207 40.5966 14.6756C40.1812 13.5939 39.6267 12.677 38.7252 11.7613C37.8236 10.8457 36.918 10.2837 35.8525 9.86377C34.8198 9.45709 33.6403 9.17807 31.9144 9.09963C30.1845 9.01987 29.6315 9 25.2255 9C20.8195 9 20.2661 9.01856 18.5353 9.09963Z" fill="#676767"/>
</svg>
