<svg width="25" height="26" viewBox="0 0 25 26" fill="none" xmlns="http://www.w3.org/2000/svg">
<path d="M0.406596 11.3847C0.298191 11.3847 0.200608 11.3467 0.113847 11.2708C0.0379699 11.195 0 11.0974 0 10.9781V0.406596C0 0.287338 0.0379699 0.189755 0.113847 0.113847C0.200608 0.0379384 0.298191 0 0.406596 0H2.16309C2.33658 0 2.46669 0.0487914 2.55342 0.146374C2.651 0.233104 2.71065 0.303602 2.73232 0.357804L5.59475 5.49717L8.45719 0.357804C8.48972 0.303602 8.54395 0.233104 8.61983 0.146374C8.70659 0.0487914 8.84211 0 9.02642 0H10.7667C10.8859 0 10.9835 0.0379384 11.0594 0.113847C11.1462 0.189755 11.1895 0.287338 11.1895 0.406596V10.9781C11.1895 11.0974 11.1462 11.195 11.0594 11.2708C10.9835 11.3467 10.8859 11.3847 10.7667 11.3847H8.83126C8.712 11.3847 8.609 11.3467 8.52224 11.2708C8.44637 11.195 8.4084 11.0974 8.4084 10.9781V4.87915L6.57058 8.27828C6.52723 8.37587 6.46218 8.46263 6.37542 8.53851C6.28869 8.61441 6.16943 8.65235 6.01761 8.65235H5.1719C5.02011 8.65235 4.90085 8.61441 4.81409 8.53851C4.72736 8.46263 4.6569 8.37587 4.60266 8.27828L2.76485 4.87915V10.9781C2.76485 11.0974 2.72691 11.195 2.651 11.2708C2.57513 11.3467 2.47754 11.3847 2.35825 11.3847H0.406596Z" fill="black"/>
<path d="M0.406596 25.9998C0.287338 25.9998 0.189755 25.962 0.113847 25.886C0.0379699 25.81 0 25.7124 0 25.5933V15.0218C0 14.9025 0.0379699 14.805 0.113847 14.7291C0.189755 14.6532 0.287338 14.6152 0.406596 14.6152H2.13056C2.3149 14.6152 2.44502 14.6586 2.52089 14.7453C2.60765 14.8212 2.66186 14.8809 2.68353 14.9242L6.6519 21.1858V15.0218C6.6519 14.9025 6.68987 14.805 6.76575 14.7291C6.84166 14.6532 6.93924 14.6152 7.0585 14.6152H9.01016C9.12944 14.6152 9.22703 14.6532 9.30291 14.7291C9.37881 14.805 9.41675 14.9025 9.41675 15.0218V25.5933C9.41675 25.7018 9.37881 25.7994 9.30291 25.886C9.22703 25.962 9.12944 25.9998 9.01016 25.9998H7.26993C7.09647 25.9998 6.96636 25.9564 6.8796 25.8697C6.80372 25.7831 6.75493 25.7234 6.73322 25.6908L2.76485 19.6733V25.5933C2.76485 25.7124 2.72691 25.81 2.651 25.886C2.57513 25.962 2.47754 25.9998 2.35825 25.9998H0.406596Z" fill="black"/>
<path d="M13.965 11.3847C13.8782 11.3847 13.7969 11.3521 13.721 11.2871C13.6559 11.2112 13.6234 11.1299 13.6234 11.0431C13.6234 10.9889 13.6288 10.9401 13.6397 10.8968L17.4617 0.455387C17.4942 0.336129 17.5593 0.233104 17.6568 0.146374C17.7653 0.0487914 17.9117 0 18.096 0H20.503C20.6873 0 20.8283 0.0487914 20.9259 0.146374C21.0343 0.233104 21.1048 0.336129 21.1373 0.455387L24.9431 10.8968C24.9646 10.9401 24.9756 10.9889 24.9756 11.0431C24.9756 11.1299 24.9377 11.2112 24.8617 11.2871C24.7967 11.3521 24.7154 11.3847 24.6178 11.3847H22.6173C22.4547 11.3847 22.3299 11.3467 22.2432 11.2708C22.1673 11.1841 22.1185 11.1082 22.0969 11.0431L21.4626 9.38423H17.1201L16.5021 11.0431C16.4804 11.1082 16.4316 11.1841 16.3557 11.2708C16.2798 11.3467 16.1497 11.3847 15.9654 11.3847H13.965ZM17.787 7.04224H20.812L19.2832 2.74859L17.787 7.04224Z" fill="black"/>
<path d="M13.965 25.9998C13.8782 25.9998 13.7969 25.9673 13.721 25.9023C13.6559 25.8263 13.6234 25.7449 13.6234 25.6583C13.6234 25.6042 13.6288 25.5554 13.6397 25.5119L17.4617 15.0706C17.4942 14.9513 17.5593 14.8483 17.6568 14.7616C17.7653 14.664 17.9117 14.6152 18.096 14.6152H20.503C20.6873 14.6152 20.8283 14.664 20.9259 14.7616C21.0343 14.8483 21.1048 14.9513 21.1373 15.0706L24.9431 25.5119C24.9646 25.5554 24.9756 25.6042 24.9756 25.6583C24.9756 25.7449 24.9377 25.8263 24.8617 25.9023C24.7967 25.9673 24.7154 25.9998 24.6178 25.9998H22.6173C22.4547 25.9998 22.3299 25.962 22.2432 25.886C22.1673 25.7994 22.1185 25.7234 22.0969 25.6583L21.4626 23.9994H17.1201L16.5021 25.6583C16.4804 25.7234 16.4316 25.7994 16.3557 25.886C16.2798 25.962 16.1497 25.9998 15.9654 25.9998H13.965ZM17.787 21.6575H20.812L19.2832 17.3638L17.787 21.6575Z" fill="black"/>
</svg>
