<svg width="70" height="59" viewBox="0 0 70 59" fill="none" xmlns="http://www.w3.org/2000/svg">
<path d="M54.068 55.115L54.013 54.895C52.5831 55.28 50.8231 55.555 48.843 55.555C43.1781 55.555 36.083 53.3 31.023 45.435C28.438 41.365 26.238 38.67 21.508 38.065C37.678 36.085 36.963 11.445 19.363 11.5H7.64805C10.123 11.83 11.773 12.325 11.773 16.835V44.665C11.773 49.175 10.123 49.67 7.64805 50H20.298C17.878 49.67 16.173 49.175 16.173 44.665V38.23H19.363C21.618 38.23 23.543 41.31 26.293 46.205C30.638 53.96 38.393 56.325 45.378 56.325C48.568 56.325 51.593 55.83 54.068 55.115ZM16.173 16.615C16.173 12.545 16.998 11.995 19.253 11.995H19.363C31.793 11.995 31.738 37.735 19.363 37.735H16.173V16.615Z" fill="#F9F9F9"/>
<path d="M51.7408 44.665V11.995H51.7958C60.2108 11.995 61.2008 19.035 61.8608 20.85L60.2108 11.5H38.7608L37.1658 20.85C37.7708 19.035 38.7608 11.995 47.2308 11.995H47.2858V44.665C47.2858 49.175 45.6358 49.67 43.1608 50H55.8108C53.3908 49.67 51.7408 49.175 51.7408 44.665Z" fill="#F9F9F9"/>
</svg>
