<svg width="70" height="59" viewBox="0 0 70 59" fill="none" xmlns="http://www.w3.org/2000/svg">
<path d="M55.7178 55.115L55.6628 54.895C54.2328 55.28 52.4728 55.555 50.4928 55.555C44.8278 55.555 37.7328 53.3 32.6728 45.435C30.0878 41.365 27.8878 38.67 23.1578 38.065C39.3278 36.085 38.6128 11.445 21.0128 11.5H9.29782C11.7728 11.83 13.4228 12.325 13.4228 16.835V44.665C13.4228 49.175 11.7728 49.67 9.29782 50H21.9478C19.5278 49.67 17.8228 49.175 17.8228 44.665V38.23H21.0128C23.2678 38.23 25.1928 41.31 27.9428 46.205C32.2878 53.96 40.0428 56.325 47.0278 56.325C50.2178 56.325 53.2428 55.83 55.7178 55.115ZM17.8228 16.615C17.8228 12.545 18.6478 11.995 20.9028 11.995H21.0128C33.4428 11.995 33.3878 37.735 21.0128 37.735H17.8228V16.615Z" fill="#1F1F1F"/>
<path d="M49.7246 44.665V11.995H49.7796C58.1946 11.995 59.1846 19.035 59.8446 20.85L58.1946 11.5H36.7446L35.1496 20.85C35.7546 19.035 36.7446 11.995 45.2146 11.995H45.2696V44.665C45.2696 49.175 43.6196 49.67 41.1446 50H53.7946C51.3746 49.67 49.7246 49.175 49.7246 44.665Z" fill="#1F1F1F"/>
</svg>
